<svg xmlns="http://www.w3.org/2000/svg" viewBox="0 0 960 720" role="img" aria-label="四人主页占位图">
  <defs>
    <linearGradient id="sky" x1="0" y1="0" x2="1" y2="1">
      <stop offset="0" stop-color="#dff5ff"/>
      <stop offset="0.48" stop-color="#fff5d8"/>
      <stop offset="1" stop-color="#ffe3eb"/>
    </linearGradient>
    <linearGradient id="ribbon" x1="0" y1="0" x2="1" y2="1">
      <stop offset="0" stop-color="#4191ff"/>
      <stop offset="0.5" stop-color="#5dc9a3"/>
      <stop offset="1" stop-color="#ff7480"/>
    </linearGradient>
    <filter id="soft"><feGaussianBlur stdDeviation="16"/></filter>
  </defs>
  <rect width="960" height="720" rx="42" fill="url(#sky)"/>
  <circle cx="180" cy="146" r="96" fill="#4191ff" opacity=".22" filter="url(#soft)"/>
  <circle cx="796" cy="174" r="128" fill="#ff7480" opacity=".2" filter="url(#soft)"/>
  <circle cx="650" cy="580" r="148" fill="#5dc9a3" opacity=".18" filter="url(#soft)"/>
  <path d="M90 560C240 410 342 642 498 470S690 272 874 366" fill="none" stroke="url(#ribbon)" stroke-width="30" stroke-linecap="round" opacity=".86"/>
  <g fill="#ffffff" stroke="#111827" stroke-opacity=".08">
    <rect x="96" y="98" width="236" height="294" rx="24" transform="rotate(-7 214 245)"/>
    <rect x="362" y="132" width="246" height="330" rx="24" transform="rotate(4 485 297)"/>
    <rect x="648" y="92" width="220" height="286" rx="24" transform="rotate(9 758 235)"/>
  </g>
  <g font-family="ui-sans-serif, system-ui" font-weight="900" fill="#111827">
    <text x="160" y="242" font-size="78">4</text>
    <text x="442" y="302" font-size="70">人</text>
    <text x="720" y="236" font-size="58">站</text>
  </g>
  <g fill="#111827" opacity=".4">
    <circle cx="216" cy="322" r="8"/>
    <circle cx="512" cy="382" r="8"/>
    <circle cx="778" cy="306" r="8"/>
  </g>
</svg>
